<?xml version="1.0" standalone="no"?>
<svg viewBox="0 0 200 200" xmlns="http://www.w3.org/2000/svg">
  <path fill="#BF0B0B" d="M35.8,-59.7C46.1,-56,54.1,-45.9,55.2,-34.9C56.3,-23.9,50.7,-11.9,54.3,2.1C57.8,16,70.6,32.1,69.9,44C69.3,55.9,55.2,63.6,41.4,70.2C27.5,76.8,13.7,82.3,0.7,81.2C-12.4,80.1,-24.8,72.3,-36.9,64.6C-48.9,56.9,-60.6,49.3,-63,38.6C-65.4,27.8,-58.4,13.9,-55.2,1.9C-52,-10.2,-52.4,-20.3,-48.4,-28.3C-44.4,-36.2,-35.9,-41.8,-27.1,-46.4C-18.3,-51,-9.1,-54.4,1.8,-57.5C12.7,-60.6,25.4,-63.3,35.8,-59.7Z" transform="translate(100 100)" />
</svg>
